ffmpeg version 3.4.5 Copyright (c) 2000-2018 the FFmpeg developers
  built with gcc 4.8.5 (GCC) 20150623 (Red Hat 4.8.5-36)
  configuration: --prefix=/usr --bindir=/usr/bin --datadir=/usr/share/ffmpeg --docdir=/usr/share/doc/ffmpeg --incdir=/usr/include/ffmpeg --libdir=/usr/lib64 --mandir=/usr/share/man --arch=x86_64 --optflags='-O2 -g -pipe -Wall -Wp,-D_FORTIFY_SOURCE=2 -fexceptions -fstack-protector-strong --param=ssp-buffer-size=4 -grecord-gcc-switches -m64 -mtune=generic' --extra-ldflags='-Wl,-z,relro ' --extra-cflags=' ' --enable-libopencore-amrnb --enable-libopencore-amrwb --enable-libvo-amrwbenc --enable-version3 --enable-bzlib --disable-crystalhd --enable-fontconfig --enable-gcrypt --enable-gnutls --enable-ladspa --enable-libass --enable-libbluray --enable-libcdio --enable-libdrm --enable-indev=jack --enable-libfreetype --enable-libfribidi --enable-libgsm --enable-libmp3lame --enable-openal --enable-opencl --enable-opengl --enable-libopenjpeg --enable-libpulse --enable-librsvg --enable-libsoxr --enable-libspeex --enable-libtheora --enable-libvorbis --enable-libv4l2 --enable-libvidstab --enable-libx264 --enable-libx265 --enable-libxvid --enable-avfilter --enable-avresample --enable-postproc --enable-pthreads --disable-static --enable-shared --enable-gpl --disable-debug --disable-stripping --shlibdir=/usr/lib64 --enable-libmfx --enable-runtime-cpudetect
  libavutil      55. 78.100 / 55. 78.100
  libavcodec     57.107.100 / 57.107.100
  libavformat    57. 83.100 / 57. 83.100
  libavdevice    57. 10.100 / 57. 10.100
  libavfilter     6.107.100 /  6.107.100
  libavresample   3.  7.  0 /  3.  7.  0
  libswscale      4.  8.100 /  4.  8.100
  libswresample   2.  9.100 /  2.  9.100
  libpostproc    54.  7.100 / 54.  7.100
Input #0, mov,mp4,m4a,3gp,3g2,mj2, from 'vid2.mp4':
  Metadata:
    major_brand     : mp42
    minor_version   : 0
    compatible_brands: isommp42
    creation_time   : 2019-02-17T01:35:29.000000Z
    location        : +41.7998-087.5894/
    location-eng    : +41.7998-087.5894/
    com.android.version: 8.0.0
  Duration: 00:00:22.23, start: 0.000000, bitrate: 17065 kb/s
    Stream #0:0(eng): Video: h264 (High) (avc1 / 0x31637661), yuv420p(tv, bt709), 1920x1080, 16904 kb/s, SAR 1:1 DAR 16:9, 29.82 fps, 29.83 tbr, 90k tbn, 180k tbc (default)
    Metadata:
      creation_time   : 2019-02-17T01:35:29.000000Z
      handler_name    : VideoHandle
    Stream #0:1(eng): Audio: aac (LC) (mp4a / 0x6134706D), 48000 Hz, stereo, fltp, 192 kb/s (default)
    Metadata:
      creation_time   : 2019-02-17T01:35:29.000000Z
      handler_name    : SoundHandle
Stream mapping:
  Stream #0:0 -> #0:0 (h264 (native) -> mjpeg (native))
Press [q] to stop, [?] for help
[swscaler @ 0x31833e0] deprecated pixel format used, make sure you did set range correctly
Output #0, image2, to 'vid2/%06d.jpg':
  Metadata:
    major_brand     : mp42
    minor_version   : 0
    compatible_brands: isommp42
    com.android.version: 8.0.0
    location        : +41.7998-087.5894/
    location-eng    : +41.7998-087.5894/
    encoder         : Lavf57.83.100
    Stream #0:0(eng): Video: mjpeg, yuvj420p(pc), 1920x1080 [SAR 1:1 DAR 16:9], q=2-31, 200 kb/s, 29.83 fps, 29.83 tbn, 29.83 tbc (default)
    Metadata:
      creation_time   : 2019-02-17T01:35:29.000000Z
      handler_name    : VideoHandle
      encoder         : Lavc57.107.100 mjpeg
    Side data:
      cpb: bitrate max/min/avg: 0/0/200000 buffer size: 0 vbv_delay: -1
frame=   19 fps=0.0 q=2.0 size=N/A time=00:00:00.56 bitrate=N/A speed= 1.1x    frame=   47 fps= 46 q=2.0 size=N/A time=00:00:01.50 bitrate=N/A speed=1.48x    frame=   81 fps= 53 q=2.0 size=N/A time=00:00:02.61 bitrate=N/A speed= 1.7x    frame=  118 fps= 58 q=2.0 size=N/A time=00:00:03.85 bitrate=N/A speed=1.89x    frame=  156 fps= 61 q=2.0 size=N/A time=00:00:05.12 bitrate=N/A speed=2.01x    frame=  195 fps= 64 q=2.0 size=N/A time=00:00:06.43 bitrate=N/A speed=2.11x    frame=  234 fps= 66 q=2.0 size=N/A time=00:00:07.74 bitrate=N/A speed=2.17x    frame=  273 fps= 67 q=2.0 size=N/A time=00:00:09.05 bitrate=N/A speed=2.23x    frame=  311 fps= 68 q=2.0 size=N/A time=00:00:10.32 bitrate=N/A speed=2.26x    frame=  350 fps= 69 q=2.0 size=N/A time=00:00:11.63 bitrate=N/A speed=2.29x    frame=  390 fps= 70 q=2.0 size=N/A time=00:00:12.97 bitrate=N/A speed=2.33x    frame=  429 fps= 71 q=2.0 size=N/A time=00:00:14.27 bitrate=N/A speed=2.35x    frame=  467 fps= 71 q=2.0 size=N/A time=00:00:15.55 bitrate=N/A speed=2.36x    frame=  507 fps= 71 q=2.0 size=N/A time=00:00:16.89 bitrate=N/A speed=2.38x    frame=  546 fps= 72 q=2.0 size=N/A time=00:00:18.20 bitrate=N/A speed=2.39x    frame=  585 fps= 72 q=2.0 size=N/A time=00:00:19.50 bitrate=N/A speed= 2.4x    frame=  624 fps= 72 q=2.0 size=N/A time=00:00:20.81 bitrate=N/A speed=2.42x    frame=  656 fps= 72 q=2.0 Lsize=N/A time=00:00:21.98 bitrate=N/A speed=2.43x    
video:113702kB audio:0kB subtitle:0kB other streams:0kB global headers:0kB muxing overhead: unknown
